<?xml version="1.0" encoding="utf-8"?>
<!-- Generator: Adobe Illustrator 20.1.0, SVG Export Plug-In . SVG Version: 6.00 Build 0)  -->
<svg version="1.1" id="Calque_1" xmlns="http://www.w3.org/2000/svg" xmlns:xlink="http://www.w3.org/1999/xlink" x="0px" y="0px"
	 viewBox="0 0 500 500" style="enable-background:new 0 0 500 500;" xml:space="preserve">
<style type="text/css">
	.st0{fill:#FFFFFF;}
</style>
<g>
	<path class="st0" d="M123.1,265.8V255h-10.2v10.7h-8.6v-28.8h8.6v11.5h10.2v-11.5h8.6v28.8H123.1z"/>
	<path class="st0" d="M170.5,251.3c0,8.5-6.7,14.8-15.7,14.8s-15.7-6.3-15.7-14.8c0-8.5,6.7-14.6,15.7-14.6S170.5,242.9,170.5,251.3
		z M147.8,251.4c0,4.4,3.3,7.6,7.1,7.6s6.8-3.2,6.8-7.6c0-4.4-3-7.5-6.8-7.5C151,243.9,147.8,247,147.8,251.4z"/>
	<path class="st0" d="M185.8,265.8l-11-28.8h9.1l6.6,20l6.6-20h8.8l-11.1,28.8H185.8z"/>
	<path class="st0" d="M220.8,243.5v4.5h13.6v6.6h-13.6v4.6h15.4v6.6h-24v-28.8h23.6v6.6H220.8z"/>
	<path class="st0" d="M257.5,258H253v7.8h-8.6v-28.8h13.5c7.7,0,12.2,3.7,12.2,10.2c0,4.3-1.7,7.4-4.9,9.2l5.8,9.4h-9.7L257.5,258z
		 M257.9,251.4c2.5,0,4-1.4,4-4c0-2.5-1.5-3.9-4-3.9H253v7.9H257.9z"/>
	<path class="st0" d="M293.2,243.8v22h-8.6v-22h-8.4v-6.8h25.3v6.8H293.2z"/>
	<path class="st0" d="M336.8,251.3c0,8.5-6.7,14.8-15.7,14.8c-9,0-15.7-6.3-15.7-14.8c0-8.5,6.7-14.6,15.7-14.6
		C330.1,236.7,336.8,242.9,336.8,251.3z M314.1,251.4c0,4.4,3.3,7.6,7.1,7.6c3.8,0,6.8-3.2,6.8-7.6c0-4.4-3-7.5-6.8-7.5
		C317.3,243.9,314.1,247,314.1,251.4z"/>
	<path class="st0" d="M364.2,265.8l-12.2-16v16h-7.9v-28.8h7.3l12.2,16.1v-16.1h7.8v28.8H364.2z"/>
	<path class="st0" d="M389,243.5v4.5h13.6v6.6H389v4.6h15.4v6.6h-24v-28.8H404v6.6H389z"/>
</g>
</svg>
